<?xml version="1.0" encoding="UTF-8" standalone="no"?>
<!DOCTYPE svg PUBLIC "-//W3C//DTD SVG 1.1//EN" "http://www.w3.org/Graphics/SVG/1.1/DTD/svg11.dtd">
<svg width="100%" height="100%" viewBox="0 0 416 75" version="1.1" xmlns="http://www.w3.org/2000/svg" xmlns:xlink="http://www.w3.org/1999/xlink" xml:space="preserve" xmlns:serif="http://www.serif.com/" style="fill-rule:evenodd;clip-rule:evenodd;stroke-linejoin:round;stroke-miterlimit:2;">
    <g transform="matrix(5.55556,0,0,5.55556,1486.56,740.974)">
        <g transform="matrix(1,0,0,1,-805.12,-292.541)">
            <g transform="matrix(1,0,0,1,33.0744,-173.673)">
                <path d="M508.706,336.693C509.262,336.693 509.759,336.802 510.196,337.021C510.632,337.239 510.977,337.576 511.23,338.031C511.483,338.486 511.61,339.07 511.61,339.784L511.61,343.785L509.582,343.785L509.582,340.087C509.582,339.525 509.458,339.11 509.211,338.843C508.963,338.575 508.616,338.441 508.17,338.441C507.845,338.441 507.555,338.509 507.299,338.645C507.044,338.78 506.846,338.986 506.704,339.262C506.563,339.538 506.492,339.893 506.492,340.326L506.492,343.785L504.464,343.785L504.464,334.139L506.492,334.139L506.492,338.731L506.033,338.148C506.284,337.674 506.643,337.313 507.111,337.065C507.578,336.817 508.109,336.693 508.706,336.693Z" style="fill:url(#_Linear1);fill-rule:nonzero;"/>
                <path d="M516.007,343.884C515.18,343.884 514.537,343.675 514.08,343.258C513.623,342.84 513.395,342.215 513.395,341.382L513.395,335.24L515.423,335.24L515.423,341.348C515.423,341.643 515.499,341.872 515.653,342.036C515.807,342.199 516.017,342.28 516.285,342.28C516.609,342.28 516.885,342.194 517.112,342.023L517.65,343.452C517.445,343.597 517.198,343.706 516.908,343.777C516.617,343.848 516.317,343.884 516.007,343.884ZM512.31,338.503L512.31,336.946L517.161,336.946L517.161,338.503L512.31,338.503Z" style="fill:url(#_Linear2);fill-rule:nonzero;"/>
                <path d="M520.856,343.884C520.029,343.884 519.386,343.675 518.929,343.258C518.472,342.84 518.244,342.215 518.244,341.382L518.244,335.24L520.272,335.24L520.272,341.348C520.272,341.643 520.348,341.872 520.502,342.036C520.656,342.199 520.866,342.28 521.134,342.28C521.458,342.28 521.734,342.194 521.961,342.023L522.499,343.452C522.294,343.597 522.047,343.706 521.757,343.777C521.466,343.848 521.166,343.884 520.856,343.884ZM517.159,338.503L517.159,336.946L522.01,336.946L522.01,338.503L517.159,338.503Z" style="fill:url(#_Linear3);fill-rule:nonzero;"/>
                <path d="M527.166,343.884C526.582,343.884 526.068,343.754 525.623,343.495C525.178,343.236 524.833,342.841 524.587,342.31C524.342,341.778 524.219,341.105 524.219,340.291C524.219,339.464 524.337,338.787 524.572,338.258C524.807,337.73 525.146,337.337 525.589,337.079C526.032,336.822 526.558,336.693 527.166,336.693C527.827,336.693 528.42,336.841 528.945,337.138C529.47,337.434 529.886,337.851 530.193,338.388C530.5,338.925 530.653,339.56 530.653,340.291C530.653,341.022 530.5,341.657 530.193,342.194C529.886,342.731 529.47,343.147 528.945,343.442C528.42,343.736 527.827,343.884 527.166,343.884ZM523.041,346.307L523.041,336.792L524.973,336.792L524.973,338.224L524.939,340.299L525.069,342.373L525.069,346.307L523.041,346.307ZM526.817,342.223C527.154,342.223 527.456,342.146 527.724,341.993C527.991,341.839 528.204,341.616 528.363,341.325C528.522,341.033 528.602,340.688 528.602,340.291C528.602,339.885 528.522,339.537 528.363,339.248C528.204,338.959 527.991,338.738 527.724,338.584C527.456,338.43 527.154,338.354 526.817,338.354C526.48,338.354 526.178,338.43 525.911,338.584C525.643,338.738 525.43,338.959 525.271,339.248C525.112,339.537 525.033,339.885 525.033,340.291C525.033,340.688 525.112,341.033 525.271,341.325C525.43,341.616 525.643,341.839 525.911,341.993C526.178,342.146 526.48,342.223 526.817,342.223Z" style="fill:url(#_Linear4);fill-rule:nonzero;"/>
                <path d="M532.735,338.312C532.544,338.312 532.384,338.247 532.254,338.117C532.124,337.987 532.059,337.827 532.059,337.636C532.059,337.419 532.132,337.242 532.28,337.103C532.427,336.964 532.596,336.895 532.787,336.895C532.977,336.895 533.135,336.958 533.261,337.084C533.387,337.209 533.45,337.372 533.45,337.571C533.45,337.718 533.417,337.846 533.352,337.955C533.287,338.063 533.198,338.15 533.086,338.215C532.973,338.28 532.856,338.312 532.735,338.312ZM531.63,343.85C531.439,343.85 531.279,343.785 531.149,343.655C531.019,343.525 530.954,343.365 530.954,343.174C530.954,342.957 531.027,342.78 531.175,342.641C531.322,342.502 531.491,342.433 531.682,342.433C531.872,342.433 532.03,342.496 532.156,342.622C532.282,342.747 532.345,342.91 532.345,343.109C532.345,343.256 532.312,343.384 532.247,343.493C532.182,343.601 532.093,343.688 531.981,343.753C531.868,343.818 531.751,343.85 531.63,343.85Z" style="fill:url(#_Linear5);fill-rule:nonzero;"/>
                <path d="M532.425,345.085L539.126,332.839L540.023,332.839L533.323,345.085L532.425,345.085Z" style="fill:url(#_Linear6);fill-rule:nonzero;"/>
                <path d="M535.545,345.085L542.246,332.839L543.143,332.839L536.443,345.085L535.545,345.085Z" style="fill:url(#_Linear7);fill-rule:nonzero;"/>
                <path d="M551.877,336.693C552.43,336.693 552.921,336.802 553.35,337.021C553.779,337.239 554.116,337.576 554.36,338.031C554.604,338.486 554.727,339.07 554.727,339.784L554.727,343.785L552.699,343.785L552.699,340.087C552.699,339.525 552.582,339.11 552.348,338.843C552.115,338.575 551.789,338.441 551.372,338.441C551.073,338.441 550.807,338.508 550.575,338.642C550.342,338.776 550.161,338.976 550.031,339.244C549.902,339.511 549.837,339.855 549.837,340.275L549.837,343.785L547.809,343.785L547.809,340.087C547.809,339.525 547.694,339.11 547.464,338.843C547.234,338.575 546.907,338.441 546.483,338.441C546.184,338.441 545.918,338.508 545.685,338.642C545.453,338.776 545.271,338.976 545.142,339.244C545.013,339.511 544.948,339.855 544.948,340.275L544.948,343.785L542.92,343.785L542.92,336.792L544.852,336.792L544.852,338.699L544.484,338.143C544.727,337.668 545.072,337.308 545.52,337.062C545.968,336.816 546.477,336.693 547.047,336.693C547.687,336.693 548.247,336.854 548.728,337.177C549.209,337.499 549.53,337.996 549.689,338.666L548.973,338.468C549.206,337.926 549.58,337.495 550.094,337.174C550.608,336.854 551.203,336.693 551.877,336.693Z" style="fill:url(#_Linear8);fill-rule:nonzero;"/>
                <path d="M559.472,343.884C558.731,343.884 558.072,343.73 557.496,343.421C556.919,343.112 556.465,342.687 556.133,342.144C555.802,341.602 555.636,340.982 555.636,340.284C555.636,339.582 555.802,338.961 556.135,338.422C556.468,337.882 556.921,337.459 557.495,337.153C558.07,336.846 558.728,336.693 559.472,336.693C560.215,336.693 560.876,336.846 561.455,337.152C562.034,337.459 562.487,337.881 562.815,338.42C563.143,338.958 563.308,339.58 563.308,340.285C563.308,340.984 563.144,341.604 562.816,342.146C562.489,342.687 562.035,343.112 561.454,343.421C560.873,343.73 560.212,343.884 559.472,343.884ZM559.472,342.223C559.814,342.223 560.119,342.146 560.386,341.993C560.653,341.839 560.865,341.615 561.022,341.322C561.178,341.029 561.256,340.683 561.256,340.285C561.256,339.879 561.178,339.533 561.022,339.246C560.865,338.958 560.653,338.738 560.386,338.584C560.119,338.43 559.815,338.354 559.476,338.354C559.136,338.354 558.832,338.43 558.565,338.584C558.298,338.738 558.084,338.958 557.925,339.246C557.767,339.533 557.687,339.879 557.687,340.285C557.687,340.683 557.767,341.029 557.925,341.322C558.084,341.615 558.297,341.839 558.565,341.993C558.832,342.146 559.134,342.223 559.472,342.223Z" style="fill:url(#_Linear9);fill-rule:nonzero;"/>
                <path d="M567.784,343.884C567.032,343.884 566.362,343.73 565.774,343.424C565.185,343.117 564.725,342.692 564.391,342.148C564.058,341.605 563.891,340.984 563.891,340.286C563.891,339.582 564.058,338.961 564.391,338.422C564.725,337.883 565.185,337.46 565.774,337.153C566.362,336.847 567.032,336.693 567.784,336.693C568.52,336.693 569.161,336.846 569.709,337.15C570.256,337.455 570.657,337.892 570.912,338.462L569.351,339.313C569.162,338.984 568.931,338.742 568.658,338.586C568.386,338.431 568.09,338.354 567.771,338.354C567.429,338.354 567.119,338.43 566.841,338.584C566.563,338.738 566.344,338.958 566.183,339.246C566.022,339.533 565.942,339.88 565.942,340.286C565.942,340.692 566.022,341.04 566.183,341.329C566.344,341.618 566.563,341.839 566.841,341.993C567.119,342.146 567.429,342.223 567.771,342.223C568.09,342.223 568.386,342.147 568.658,341.994C568.931,341.842 569.162,341.598 569.351,341.264L570.912,342.115C570.657,342.68 570.256,343.116 569.709,343.423C569.161,343.73 568.52,343.884 567.784,343.884Z" style="fill:url(#_Linear10);fill-rule:nonzero;"/>
                <path d="M573.296,342.356L573.346,339.879L576.611,336.792L579.031,336.792L575.89,339.978L574.845,340.84L573.296,342.356ZM571.624,343.785L571.624,334.139L573.652,334.139L573.652,343.785L571.624,343.785ZM576.829,343.785L574.472,340.852L575.737,339.272L579.288,343.785L576.829,343.785Z" style="fill:url(#_Linear11);fill-rule:nonzero;"/>
            </g>
        </g>
    </g>
    <defs>
        <linearGradient id="_Linear1" x1="0" y1="0" x2="1" y2="0" gradientUnits="userSpaceOnUse" gradientTransform="matrix(38.456,0,0,15.847,503.524,339.125)"><stop offset="0" style="stop-color:rgb(212,164,255);stop-opacity:1"/><stop offset="1" style="stop-color:rgb(255,155,230);stop-opacity:1"/></linearGradient>
        <linearGradient id="_Linear2" x1="0" y1="0" x2="1" y2="0" gradientUnits="userSpaceOnUse" gradientTransform="matrix(38.456,0,0,15.847,503.524,339.125)"><stop offset="0" style="stop-color:rgb(212,164,255);stop-opacity:1"/><stop offset="1" style="stop-color:rgb(255,155,230);stop-opacity:1"/></linearGradient>
        <linearGradient id="_Linear3" x1="0" y1="0" x2="1" y2="0" gradientUnits="userSpaceOnUse" gradientTransform="matrix(38.456,0,0,15.847,503.524,339.125)"><stop offset="0" style="stop-color:rgb(212,164,255);stop-opacity:1"/><stop offset="1" style="stop-color:rgb(255,155,230);stop-opacity:1"/></linearGradient>
        <linearGradient id="_Linear4" x1="0" y1="0" x2="1" y2="0" gradientUnits="userSpaceOnUse" gradientTransform="matrix(38.456,0,0,15.847,503.524,339.125)"><stop offset="0" style="stop-color:rgb(212,164,255);stop-opacity:1"/><stop offset="1" style="stop-color:rgb(255,155,230);stop-opacity:1"/></linearGradient>
        <linearGradient id="_Linear5" x1="0" y1="0" x2="1" y2="0" gradientUnits="userSpaceOnUse" gradientTransform="matrix(38.456,0,0,15.847,503.524,339.125)"><stop offset="0" style="stop-color:rgb(212,164,255);stop-opacity:1"/><stop offset="1" style="stop-color:rgb(255,155,230);stop-opacity:1"/></linearGradient>
        <linearGradient id="_Linear6" x1="0" y1="0" x2="1" y2="0" gradientUnits="userSpaceOnUse" gradientTransform="matrix(38.456,0,0,15.847,503.524,339.125)"><stop offset="0" style="stop-color:rgb(212,164,255);stop-opacity:1"/><stop offset="1" style="stop-color:rgb(255,155,230);stop-opacity:1"/></linearGradient>
        <linearGradient id="_Linear7" x1="0" y1="0" x2="1" y2="0" gradientUnits="userSpaceOnUse" gradientTransform="matrix(38.456,0,0,15.847,503.524,339.125)"><stop offset="0" style="stop-color:rgb(212,164,255);stop-opacity:1"/><stop offset="1" style="stop-color:rgb(255,155,230);stop-opacity:1"/></linearGradient>
        <linearGradient id="_Linear8" x1="0" y1="0" x2="1" y2="0" gradientUnits="userSpaceOnUse" gradientTransform="matrix(36.179,0,0,15.847,530.824,339.125)"><stop offset="0" style="stop-color:rgb(255,215,0);stop-opacity:1"/><stop offset="1" style="stop-color:rgb(255,168,0);stop-opacity:1"/></linearGradient>
        <linearGradient id="_Linear9" x1="0" y1="0" x2="1" y2="0" gradientUnits="userSpaceOnUse" gradientTransform="matrix(36.179,0,0,15.847,530.824,339.125)"><stop offset="0" style="stop-color:rgb(255,215,0);stop-opacity:1"/><stop offset="1" style="stop-color:rgb(255,168,0);stop-opacity:1"/></linearGradient>
        <linearGradient id="_Linear10" x1="0" y1="0" x2="1" y2="0" gradientUnits="userSpaceOnUse" gradientTransform="matrix(36.179,0,0,15.847,530.824,339.125)"><stop offset="0" style="stop-color:rgb(255,215,0);stop-opacity:1"/><stop offset="1" style="stop-color:rgb(255,168,0);stop-opacity:1"/></linearGradient>
        <linearGradient id="_Linear11" x1="0" y1="0" x2="1" y2="0" gradientUnits="userSpaceOnUse" gradientTransform="matrix(36.179,0,0,15.847,530.824,339.125)"><stop offset="0" style="stop-color:rgb(255,215,0);stop-opacity:1"/><stop offset="1" style="stop-color:rgb(255,168,0);stop-opacity:1"/></linearGradient>
    </defs>
</svg>
