<?xml version="1.0" encoding="UTF-8" standalone="no"?>
<svg width="100%" height="100%" viewBox="0 0 75 19" version="1.1"
     xmlns="http://www.w3.org/2000/svg" xmlns:xlink="http://www.w3.org/1999/xlink"
     xml:space="preserve" style="fill-rule:evenodd;clip-rule:evenodd;stroke-linejoin:round;stroke-miterlimit:2;">
  <style>
    .dark { display:none; }
    .light { display:inline; }
    @media (prefers-color-scheme: dark) {
      .dark { display:inline; }
      .light { display:none; }
    }
  </style>

  <!-- LIGHT VERSION -->
  <g class="dark">
    <g transform="matrix(1,0,0,1,-343.917,-452.472)">
      <g id="dark" transform="matrix(1,0,0,1,-193.621,295.855)">
        <g transform="matrix(1,0,0,1,33.0744,-173.673)">
          <g transform="matrix(13,0,0,13,503.524,343.785)">
            <path d="M0.399,-0.546C0.441,-0.546 0.48,-0.537 0.513,-0.52C0.547,-0.504 0.573,-0.478 0.593,-0.443C0.612,-0.408 0.622,-0.363 0.622,-0.308L0.622,-0L0.466,-0L0.466,-0.284C0.466,-0.328 0.456,-0.36 0.437,-0.38C0.418,-0.401 0.392,-0.411 0.357,-0.411C0.332,-0.411 0.31,-0.406 0.29,-0.395C0.271,-0.385 0.256,-0.369 0.245,-0.348C0.234,-0.327 0.228,-0.299 0.228,-0.266L0.228,-0L0.072,-0L0.072,-0.742L0.228,-0.742L0.228,-0.389L0.193,-0.434C0.212,-0.47 0.24,-0.498 0.276,-0.517C0.312,-0.536 0.353,-0.546 0.399,-0.546Z" style="fill:rgb(34,34,34);fill-rule:nonzero;"/>
          </g>
          <g transform="matrix(13,0,0,13,512.208,343.785)">
            <path d="M0.292,0.008C0.229,0.008 0.179,-0.008 0.144,-0.041C0.109,-0.073 0.091,-0.121 0.091,-0.185L0.091,-0.657L0.247,-0.657L0.247,-0.187C0.247,-0.165 0.253,-0.147 0.265,-0.135C0.277,-0.122 0.293,-0.116 0.314,-0.116C0.339,-0.116 0.36,-0.122 0.377,-0.136L0.419,-0.026C0.403,-0.014 0.384,-0.006 0.362,-0.001C0.339,0.005 0.316,0.008 0.292,0.008ZM0.008,-0.406L0.008,-0.526L0.381,-0.526L0.381,-0.406L0.008,-0.406Z" style="fill:rgb(34,34,34);fill-rule:nonzero;"/>
          </g>
          <g transform="matrix(13,0,0,13,517.057,343.785)">
            <path d="M0.292,0.008C0.229,0.008 0.179,-0.008 0.144,-0.041C0.109,-0.073 0.091,-0.121 0.091,-0.185L0.091,-0.657L0.247,-0.657L0.247,-0.187C0.247,-0.165 0.253,-0.147 0.265,-0.135C0.277,-0.122 0.293,-0.116 0.314,-0.116C0.339,-0.116 0.36,-0.122 0.377,-0.136L0.419,-0.026C0.403,-0.014 0.384,-0.006 0.362,-0.001C0.339,0.005 0.316,0.008 0.292,0.008ZM0.008,-0.406L0.008,-0.526L0.381,-0.526L0.381,-0.406L0.008,-0.406Z" style="fill:rgb(34,34,34);fill-rule:nonzero;"/>
          </g>
          <g transform="matrix(13,0,0,13,522.101,343.785)">
            <path d="M0.39,0.008C0.345,0.008 0.305,-0.002 0.271,-0.022C0.237,-0.042 0.21,-0.073 0.191,-0.114C0.172,-0.154 0.163,-0.206 0.163,-0.269C0.163,-0.332 0.172,-0.384 0.19,-0.425C0.208,-0.466 0.234,-0.496 0.268,-0.516C0.302,-0.536 0.343,-0.546 0.39,-0.546C0.44,-0.546 0.486,-0.534 0.526,-0.511C0.567,-0.489 0.599,-0.456 0.622,-0.415C0.646,-0.374 0.658,-0.325 0.658,-0.269C0.658,-0.213 0.646,-0.164 0.622,-0.122C0.599,-0.081 0.567,-0.049 0.526,-0.026C0.486,-0.004 0.44,0.008 0.39,0.008ZM0.072,0.194L0.072,-0.538L0.221,-0.538L0.221,-0.428L0.218,-0.268L0.228,-0.109L0.228,0.194L0.072,0.194ZM0.363,-0.12C0.389,-0.12 0.412,-0.126 0.433,-0.138C0.453,-0.15 0.47,-0.167 0.482,-0.189C0.494,-0.212 0.5,-0.238 0.5,-0.269C0.5,-0.3 0.494,-0.327 0.482,-0.349C0.47,-0.371 0.453,-0.388 0.433,-0.4C0.412,-0.412 0.389,-0.418 0.363,-0.418C0.337,-0.418 0.314,-0.412 0.293,-0.4C0.272,-0.388 0.256,-0.371 0.244,-0.349C0.232,-0.327 0.226,-0.3 0.226,-0.269C0.226,-0.238 0.232,-0.212 0.244,-0.189C0.256,-0.167 0.272,-0.15 0.293,-0.138C0.314,-0.126 0.337,-0.12 0.363,-0.12Z" style="fill:rgb(34,34,34);fill-rule:nonzero;"/>
          </g>
          <g transform="matrix(13,0,0,13,530.824,343.785)">
            <path d="M0.147,-0.421C0.132,-0.421 0.12,-0.426 0.11,-0.436C0.1,-0.446 0.095,-0.458 0.095,-0.473C0.095,-0.49 0.101,-0.503 0.112,-0.514C0.123,-0.525 0.136,-0.53 0.151,-0.53C0.166,-0.53 0.178,-0.525 0.188,-0.516C0.197,-0.506 0.202,-0.493 0.202,-0.478C0.202,-0.467 0.2,-0.457 0.195,-0.449C0.19,-0.44 0.183,-0.434 0.174,-0.429C0.165,-0.424 0.156,-0.421 0.147,-0.421ZM0.062,0.005C0.047,0.005 0.035,0 0.025,-0.01C0.015,-0.02 0.01,-0.032 0.01,-0.047C0.01,-0.064 0.016,-0.077 0.027,-0.088C0.038,-0.099 0.051,-0.104 0.066,-0.104C0.081,-0.104 0.093,-0.099 0.103,-0.09C0.112,-0.08 0.117,-0.067 0.117,-0.052C0.117,-0.041 0.115,-0.031 0.11,-0.023C0.105,-0.014 0.098,-0.008 0.089,-0.003C0.08,0.003 0.071,0.005 0.062,0.005Z" style="fill:rgb(34,34,34);fill-rule:nonzero;"/>
          </g>
          <g transform="matrix(13,0,0,13,533.71,343.785)">
            <path d="M-0.099,0.1L0.417,-0.842L0.486,-0.842L-0.03,0.1L-0.099,0.1Z" style="fill:rgb(34,34,34);fill-rule:nonzero;"/>
          </g>
          <g transform="matrix(13,0,0,13,536.83,343.785)">
            <path d="M-0.099,0.1L0.417,-0.842L0.486,-0.842L-0.03,0.1L-0.099,0.1Z" style="fill:rgb(34,34,34);fill-rule:nonzero;"/>
          </g>
          <path d="M551.877,336.693C552.43,336.693 552.921,336.802 553.35,337.021C553.779,337.239 554.116,337.576 554.36,338.031C554.604,338.486 554.727,339.07 554.727,339.784L554.727,343.785L552.699,343.785L552.699,340.087C552.699,339.525 552.582,339.11 552.348,338.843C552.115,338.575 551.789,338.441 551.372,338.441C551.073,338.441 550.807,338.508 550.575,338.642C550.342,338.776 550.161,338.976 550.031,339.244C549.902,339.511 549.837,339.855 549.837,340.275L549.837,343.785L547.809,343.785L547.809,340.087C547.809,339.525 547.694,339.11 547.464,338.843C547.234,338.575 546.907,338.441 546.483,338.441C546.184,338.441 545.918,338.508 545.685,338.642C545.453,338.776 545.271,338.976 545.142,339.244C545.013,339.511 544.948,339.855 544.948,340.275L544.948,343.785L542.92,343.785L542.92,336.792L544.852,336.792L544.852,338.699L544.484,338.143C544.727,337.668 545.072,337.308 545.52,337.062C545.968,336.816 546.477,336.693 547.047,336.693C547.687,336.693 548.247,336.854 548.728,337.177C549.209,337.499 549.53,337.996 549.689,338.666L548.973,338.468C549.206,337.926 549.58,337.495 550.094,337.174C550.608,336.854 551.203,336.693 551.877,336.693Z" style="fill:url(#_Linear1);fill-rule:nonzero;"/>
          <path d="M559.472,343.884C558.731,343.884 558.072,343.73 557.496,343.421C556.919,343.112 556.465,342.687 556.133,342.144C555.802,341.602 555.636,340.982 555.636,340.284C555.636,339.582 555.802,338.961 556.135,338.422C556.468,337.882 556.921,337.459 557.495,337.153C558.07,336.846 558.728,336.693 559.472,336.693C560.215,336.693 560.876,336.846 561.455,337.152C562.034,337.459 562.487,337.881 562.815,338.42C563.143,338.958 563.308,339.58 563.308,340.285C563.308,340.984 563.144,341.604 562.816,342.146C562.489,342.687 562.035,343.112 561.454,343.421C560.873,343.73 560.212,343.884 559.472,343.884ZM559.472,342.223C559.814,342.223 560.119,342.146 560.386,341.993C560.653,341.839 560.865,341.615 561.022,341.322C561.178,341.029 561.256,340.683 561.256,340.285C561.256,339.879 561.178,339.533 561.022,339.246C560.865,338.958 560.653,338.738 560.386,338.584C560.119,338.43 559.815,338.354 559.476,338.354C559.136,338.354 558.832,338.43 558.565,338.584C558.298,338.738 558.084,338.958 557.925,339.246C557.767,339.533 557.687,339.879 557.687,340.285C557.687,340.683 557.767,341.029 557.925,341.322C558.084,341.615 558.297,341.839 558.565,341.993C558.832,342.146 559.134,342.223 559.472,342.223Z" style="fill:url(#_Linear2);fill-rule:nonzero;"/>
          <path d="M567.784,343.884C567.032,343.884 566.362,343.73 565.774,343.424C565.185,343.117 564.725,342.692 564.391,342.148C564.058,341.605 563.891,340.984 563.891,340.286C563.891,339.582 564.058,338.961 564.391,338.422C564.725,337.883 565.185,337.46 565.774,337.153C566.362,336.847 567.032,336.693 567.784,336.693C568.52,336.693 569.161,336.846 569.709,337.15C570.256,337.455 570.657,337.892 570.912,338.462L569.351,339.313C569.162,338.984 568.931,338.742 568.658,338.586C568.386,338.431 568.09,338.354 567.771,338.354C567.429,338.354 567.119,338.43 566.841,338.584C566.563,338.738 566.344,338.958 566.183,339.246C566.022,339.533 565.942,339.88 565.942,340.286C565.942,340.692 566.022,341.04 566.183,341.329C566.344,341.618 566.563,341.839 566.841,341.993C567.119,342.146 567.429,342.223 567.771,342.223C568.09,342.223 568.386,342.147 568.658,341.994C568.931,341.842 569.162,341.598 569.351,341.264L570.912,342.115C570.657,342.68 570.256,343.116 569.709,343.423C569.161,343.73 568.52,343.884 567.784,343.884Z" style="fill:url(#_Linear3);fill-rule:nonzero;"/>
          <path d="M573.296,342.356L573.346,339.879L576.611,336.792L579.031,336.792L575.89,339.978L574.845,340.84L573.296,342.356ZM571.624,343.785L571.624,334.139L573.652,334.139L573.652,343.785L571.624,343.785ZM576.829,343.785L574.472,340.852L575.737,339.272L579.288,343.785L576.829,343.785Z" style="fill:url(#_Linear4);fill-rule:nonzero;"/>
        </g>
        <g transform="matrix(1,0,0,0.908027,181.635,-336.481)">
          <rect x="374.8" y="543.042" width="12.967" height="20.168" style="fill-opacity:0;"/>
          <path d="M387.768,543.042L374.8,543.042L374.8,563.21L387.768,563.21L387.768,543.042ZM386.868,544.033L386.868,562.219C386.868,562.219 375.7,562.219 375.7,562.219C375.7,562.219 375.7,544.033 375.7,544.033L386.868,544.033Z" style="fill:rgb(34,34,34);fill-opacity:0;"/>
        </g>
      </g>
    </g>
  </g>

  <!-- DARK VERSION -->
  <g class="light">
    <g transform="matrix(1,0,0,1,-345.708,-491.489)">
      <g id="Dark" transform="matrix(1,0,0,1,-191.959,334.872)">
        <g transform="matrix(1,0,0,1,33.0744,-173.673)">
          <g transform="matrix(13,0,0,13,503.524,343.785)">
            <path d="M0.385,-0.54C0.428,-0.54 0.466,-0.532 0.5,-0.515C0.533,-0.499 0.559,-0.473 0.579,-0.439C0.598,-0.404 0.608,-0.36 0.608,-0.306L0.608,-0L0.483,-0L0.483,-0.29C0.483,-0.337 0.472,-0.372 0.45,-0.396C0.427,-0.419 0.396,-0.431 0.356,-0.431C0.327,-0.431 0.301,-0.425 0.278,-0.413C0.255,-0.401 0.238,-0.383 0.226,-0.359C0.213,-0.336 0.207,-0.306 0.207,-0.27L0.207,-0L0.082,-0L0.082,-0.742L0.207,-0.742L0.207,-0.39L0.18,-0.434C0.199,-0.468 0.226,-0.495 0.261,-0.513C0.297,-0.531 0.338,-0.54 0.385,-0.54Z" style="fill:white;fill-rule:nonzero;"/>
          </g>
          <g transform="matrix(13,0,0,13,512.208,343.785)">
            <path d="M0.283,0.007C0.224,0.007 0.179,-0.009 0.147,-0.039C0.115,-0.069 0.099,-0.114 0.099,-0.173L0.099,-0.652L0.224,-0.652L0.224,-0.176C0.224,-0.15 0.23,-0.131 0.243,-0.117C0.256,-0.103 0.275,-0.096 0.298,-0.096C0.326,-0.096 0.349,-0.103 0.368,-0.118L0.403,-0.029C0.388,-0.017 0.37,-0.008 0.349,-0.002C0.327,0.004 0.305,0.007 0.283,0.007ZM0.011,-0.43L0.011,-0.53L0.367,-0.53L0.367,-0.43L0.011,-0.43Z" style="fill:white;fill-rule:nonzero;"/>
          </g>
          <g transform="matrix(13,0,0,13,517.057,343.785)">
            <path d="M0.283,0.007C0.224,0.007 0.179,-0.009 0.147,-0.039C0.115,-0.069 0.099,-0.114 0.099,-0.173L0.099,-0.652L0.224,-0.652L0.224,-0.176C0.224,-0.15 0.23,-0.131 0.243,-0.117C0.256,-0.103 0.275,-0.096 0.298,-0.096C0.326,-0.096 0.349,-0.103 0.368,-0.118L0.403,-0.029C0.388,-0.017 0.37,-0.008 0.349,-0.002C0.327,0.004 0.305,0.007 0.283,0.007ZM0.011,-0.43L0.011,-0.53L0.367,-0.53L0.367,-0.43L0.011,-0.43Z" style="fill:white;fill-rule:nonzero;"/>
          </g>
          <g transform="matrix(13,0,0,13,522.101,343.785)">
            <path d="M0.378,0.007C0.335,0.007 0.295,-0.003 0.259,-0.023C0.224,-0.043 0.195,-0.073 0.175,-0.114C0.154,-0.154 0.143,-0.205 0.143,-0.267C0.143,-0.329 0.153,-0.381 0.174,-0.421C0.194,-0.461 0.221,-0.491 0.257,-0.511C0.293,-0.531 0.333,-0.54 0.378,-0.54C0.431,-0.54 0.477,-0.529 0.517,-0.506C0.558,-0.484 0.59,-0.452 0.613,-0.411C0.637,-0.37 0.649,-0.322 0.649,-0.267C0.649,-0.212 0.637,-0.164 0.613,-0.123C0.59,-0.082 0.558,-0.05 0.517,-0.027C0.477,-0.005 0.431,0.007 0.378,0.007ZM0.082,0.194L0.082,-0.534L0.201,-0.534L0.201,-0.408L0.197,-0.266L0.207,-0.124L0.207,0.194L0.082,0.194ZM0.364,-0.1C0.394,-0.1 0.421,-0.107 0.444,-0.12C0.468,-0.134 0.487,-0.153 0.501,-0.178C0.515,-0.204 0.522,-0.233 0.522,-0.267C0.522,-0.301 0.515,-0.331 0.501,-0.356C0.487,-0.381 0.468,-0.4 0.444,-0.414C0.421,-0.427 0.394,-0.434 0.364,-0.434C0.334,-0.434 0.307,-0.427 0.283,-0.414C0.259,-0.4 0.24,-0.381 0.226,-0.356C0.212,-0.331 0.205,-0.301 0.205,-0.267C0.205,-0.233 0.212,-0.204 0.226,-0.178C0.24,-0.153 0.259,-0.134 0.283,-0.12C0.307,-0.107 0.334,-0.1 0.364,-0.1Z" style="fill:white;fill-rule:nonzero;"/>
          </g>
          <g transform="matrix(13,0,0,13,530.824,343.785)">
            <path d="M0.147,-0.421C0.132,-0.421 0.12,-0.426 0.11,-0.436C0.1,-0.446 0.095,-0.458 0.095,-0.473C0.095,-0.49 0.101,-0.503 0.112,-0.514C0.123,-0.525 0.136,-0.53 0.151,-0.53C0.166,-0.53 0.178,-0.525 0.188,-0.516C0.197,-0.506 0.202,-0.493 0.202,-0.478C0.202,-0.467 0.2,-0.457 0.195,-0.449C0.19,-0.44 0.183,-0.434 0.174,-0.429C0.165,-0.424 0.156,-0.421 0.147,-0.421ZM0.062,0.005C0.047,0.005 0.035,0 0.025,-0.01C0.015,-0.02 0.01,-0.032 0.01,-0.047C0.01,-0.064 0.016,-0.077 0.027,-0.088C0.038,-0.099 0.051,-0.104 0.066,-0.104C0.081,-0.104 0.093,-0.099 0.103,-0.09C0.112,-0.08 0.117,-0.067 0.117,-0.052C0.117,-0.041 0.115,-0.031 0.11,-0.023C0.105,-0.014 0.098,-0.008 0.089,-0.003C0.08,0.003 0.071,0.005 0.062,0.005Z" style="fill:white;fill-rule:nonzero;"/>
          </g>
          <g transform="matrix(13,0,0,13,533.71,343.785)">
            <path d="M-0.099,0.1L0.417,-0.842L0.486,-0.842L-0.03,0.1L-0.099,0.1Z" style="fill:white;fill-rule:nonzero;"/>
          </g>
          <g transform="matrix(13,0,0,13,536.83,343.785)">
            <path d="M-0.099,0.1L0.417,-0.842L0.486,-0.842L-0.03,0.1L-0.099,0.1Z" style="fill:white;fill-rule:nonzero;"/>
          </g>
          <path d="M551.804,336.759C552.364,336.759 552.858,336.868 553.287,337.085C553.716,337.302 554.053,337.635 554.296,338.085C554.539,338.534 554.661,339.108 554.661,339.808L554.661,343.785L553.036,343.785L553.036,340.021C553.036,339.406 552.9,338.946 552.628,338.643C552.356,338.339 551.971,338.188 551.473,338.188C551.119,338.188 550.804,338.265 550.53,338.42C550.255,338.574 550.043,338.803 549.892,339.107C549.742,339.41 549.667,339.793 549.667,340.257L549.667,343.785L548.042,343.785L548.042,340.021C548.042,339.406 547.907,338.946 547.636,338.643C547.365,338.339 546.98,338.188 546.479,338.188C546.125,338.188 545.81,338.265 545.536,338.42C545.261,338.574 545.049,338.803 544.899,339.107C544.749,339.41 544.673,339.793 544.673,340.257L544.673,343.785L543.048,343.785L543.048,336.844L544.598,336.844L544.598,338.693L544.321,338.143C544.552,337.696 544.89,337.354 545.337,337.116C545.784,336.878 546.296,336.759 546.874,336.759C547.52,336.759 548.084,336.92 548.565,337.241C549.046,337.562 549.365,338.051 549.522,338.708L548.886,338.486C549.108,337.964 549.48,337.546 550.001,337.231C550.522,336.917 551.123,336.759 551.804,336.759Z" style="fill:url(#_Linear1);fill-rule:nonzero;"/>
          <path d="M559.406,343.87C558.693,343.87 558.059,343.717 557.502,343.412C556.944,343.107 556.505,342.686 556.184,342.149C555.862,341.612 555.702,340.999 555.702,340.312C555.702,339.616 555.863,339.002 556.186,338.47C556.509,337.938 556.947,337.519 557.501,337.215C558.055,336.911 558.69,336.759 559.406,336.759C560.121,336.759 560.758,336.911 561.317,337.215C561.876,337.518 562.314,337.936 562.632,338.467C562.951,338.999 563.11,339.614 563.11,340.312C563.11,341.002 562.951,341.615 562.634,342.151C562.317,342.687 561.877,343.107 561.316,343.412C560.754,343.717 560.117,343.87 559.406,343.87ZM559.406,342.487C559.803,342.487 560.157,342.399 560.466,342.224C560.775,342.048 561.02,341.796 561.199,341.466C561.378,341.137 561.468,340.752 561.468,340.312C561.468,339.865 561.378,339.48 561.199,339.155C561.02,338.831 560.775,338.581 560.466,338.405C560.157,338.23 559.805,338.142 559.411,338.142C559.017,338.142 558.666,338.23 558.357,338.405C558.047,338.581 557.801,338.831 557.618,339.155C557.435,339.48 557.343,339.865 557.343,340.312C557.343,340.752 557.435,341.137 557.618,341.466C557.801,341.796 558.047,342.048 558.356,342.224C558.664,342.399 559.014,342.487 559.406,342.487Z" style="fill:url(#_Linear2);fill-rule:nonzero;"/>
          <path d="M567.714,343.87C566.99,343.87 566.344,343.718 565.775,343.413C565.207,343.109 564.762,342.688 564.44,342.152C564.118,341.616 563.957,341.003 563.957,340.314C563.957,339.617 564.118,339.003 564.44,338.471C564.762,337.938 565.207,337.52 565.775,337.216C566.344,336.911 566.99,336.759 567.714,336.759C568.392,336.759 568.99,336.896 569.507,337.171C570.024,337.446 570.415,337.848 570.679,338.379L569.434,339.112C569.227,338.782 568.973,338.538 568.674,338.38C568.375,338.221 568.051,338.142 567.701,338.142C567.304,338.142 566.945,338.23 566.627,338.405C566.309,338.581 566.058,338.831 565.874,339.155C565.69,339.48 565.598,339.866 565.598,340.314C565.598,340.762 565.69,341.148 565.874,341.473C566.058,341.798 566.309,342.048 566.627,342.224C566.945,342.399 567.304,342.487 567.701,342.487C568.051,342.487 568.375,342.41 568.674,342.255C568.973,342.1 569.227,341.854 569.434,341.517L570.679,342.25C570.415,342.773 570.024,343.174 569.507,343.452C568.99,343.731 568.392,343.87 567.714,343.87Z" style="fill:url(#_Linear3);fill-rule:nonzero;"/>
          <path d="M573.077,342.242L573.12,340.199L576.743,336.844L578.697,336.844L575.606,339.933L574.748,340.652L573.077,342.242ZM571.752,343.785L571.752,334.139L573.377,334.139L573.377,343.785L571.752,343.785ZM576.989,343.785L574.451,340.647L575.477,339.353L578.965,343.785L576.989,343.785Z" style="fill:url(#_Linear4);fill-rule:nonzero;"/>
        </g>
        <g transform="matrix(1,0,0,0.908027,181.635,-336.481)">
          <rect x="374.8" y="543.042" width="12.967" height="20.168" style="fill-opacity:0;"/>
          <path d="M387.768,543.042L374.8,543.042L374.8,563.21L387.768,563.21L387.768,543.042ZM386.868,544.033L386.868,562.219C386.868,562.219 375.7,562.219 375.7,562.219C375.7,562.219 375.7,544.033 375.7,544.033L386.868,544.033Z" style="fill:rgb(34,34,34);fill-opacity:0;"/>
        </g>
      </g>
    </g>
  </g>

  <!-- Shared defs -->
  <defs>
    <linearGradient id="_Linear1" x1="0" y1="0" x2="1" y2="0" gradientUnits="userSpaceOnUse" gradientTransform="matrix(36.179,0,0,15.847,530.824,339.125)"><stop offset="0" style="stop-color:rgb(255,215,0);stop-opacity:1"/><stop offset="1" style="stop-color:rgb(255,168,0);stop-opacity:1"/></linearGradient>
    <linearGradient id="_Linear2" x1="0" y1="0" x2="1" y2="0" gradientUnits="userSpaceOnUse" gradientTransform="matrix(36.179,0,0,15.847,530.824,339.125)"><stop offset="0" style="stop-color:rgb(255,215,0);stop-opacity:1"/><stop offset="1" style="stop-color:rgb(255,168,0);stop-opacity:1"/></linearGradient>
    <linearGradient id="_Linear3" x1="0" y1="0" x2="1" y2="0" gradientUnits="userSpaceOnUse" gradientTransform="matrix(36.179,0,0,15.847,530.824,339.125)"><stop offset="0" style="stop-color:rgb(255,215,0);stop-opacity:1"/><stop offset="1" style="stop-color:rgb(255,168,0);stop-opacity:1"/></linearGradient>
    <linearGradient id="_Linear4" x1="0" y1="0" x2="1" y2="0" gradientUnits="userSpaceOnUse" gradientTransform="matrix(36.179,0,0,15.847,530.824,339.125)"><stop offset="0" style="stop-color:rgb(255,215,0);stop-opacity:1"/><stop offset="1" style="stop-color:rgb(255,168,0);stop-opacity:1"/></linearGradient>
  </defs>
</svg>
