<?xml version="1.0" encoding="UTF-8" standalone="no"?>
<!DOCTYPE svg PUBLIC "-//W3C//DTD SVG 1.1//EN" "http://www.w3.org/Graphics/SVG/1.1/DTD/svg11.dtd">
<svg width="100%" height="100%" viewBox="0 0 79 17" version="1.1" xmlns="http://www.w3.org/2000/svg" xmlns:xlink="http://www.w3.org/1999/xlink" xml:space="preserve" xmlns:serif="http://www.serif.com/" style="fill-rule:evenodd;clip-rule:evenodd;stroke-linejoin:round;stroke-miterlimit:2;">
    <g transform="matrix(1,0,0,1,269.312,54.6011)">
        <g id="Light" transform="matrix(1,0,0,1,-804.667,-212.487)">
            <g transform="matrix(1,0,0,1,33.0744,-173.673)">
                <path d="M508.525,336.759C509.086,336.759 509.584,336.868 510.018,337.085C510.453,337.302 510.796,337.635 511.048,338.085C511.3,338.534 511.426,339.108 511.426,339.808L511.426,343.785L509.801,343.785L509.801,340.021C509.801,339.406 509.657,338.946 509.369,338.643C509.081,338.339 508.674,338.188 508.149,338.188C507.768,338.188 507.431,338.265 507.138,338.42C506.844,338.576 506.617,338.806 506.457,339.112C506.297,339.418 506.217,339.806 506.217,340.274L506.217,343.785L504.592,343.785L504.592,334.139L506.217,334.139L506.217,338.72L505.866,338.145C506.106,337.698 506.458,337.355 506.923,337.117C507.388,336.878 507.922,336.759 508.525,336.759Z" style="fill:url(#_Linear1);fill-rule:nonzero;"/>
                <path d="M515.882,343.87C515.122,343.87 514.533,343.673 514.115,343.28C513.697,342.887 513.488,342.306 513.488,341.539L513.488,335.313L515.113,335.313L515.113,341.501C515.113,341.831 515.198,342.087 515.368,342.268C515.538,342.45 515.777,342.541 516.087,342.541C516.443,342.541 516.744,342.446 516.987,342.256L517.452,343.414C517.256,343.566 517.02,343.68 516.741,343.756C516.462,343.832 516.176,343.87 515.882,343.87ZM512.355,338.19L512.355,336.894L516.977,336.894L516.977,338.19L512.355,338.19Z" style="fill:url(#_Linear2);fill-rule:nonzero;"/>
                <path d="M520.731,343.87C519.971,343.87 519.382,343.673 518.964,343.28C518.546,342.887 518.337,342.306 518.337,341.539L518.337,335.313L519.962,335.313L519.962,341.501C519.962,341.831 520.047,342.087 520.217,342.268C520.387,342.45 520.626,342.541 520.936,342.541C521.292,342.541 521.593,342.446 521.836,342.256L522.301,343.414C522.105,343.566 521.869,343.68 521.59,343.756C521.311,343.832 521.025,343.87 520.731,343.87ZM517.204,338.19L517.204,336.894L521.826,336.894L521.826,338.19L517.204,338.19Z" style="fill:url(#_Linear3);fill-rule:nonzero;"/>
                <path d="M527.02,343.87C526.45,343.87 525.933,343.741 525.47,343.485C525.007,343.228 524.64,342.836 524.37,342.31C524.1,341.783 523.965,341.118 523.965,340.315C523.965,339.503 524.096,338.835 524.356,338.312C524.617,337.789 524.979,337.4 525.442,337.144C525.904,336.887 526.431,336.759 527.02,336.759C527.697,336.759 528.299,336.907 528.827,337.202C529.354,337.497 529.77,337.911 530.075,338.442C530.379,338.973 530.532,339.598 530.532,340.315C530.532,341.033 530.379,341.657 530.075,342.189C529.77,342.72 529.354,343.133 528.827,343.428C528.299,343.722 527.697,343.87 527.02,343.87ZM523.169,346.307L523.169,336.844L524.719,336.844L524.719,338.485L524.664,340.327L524.794,342.168L524.794,346.307L523.169,346.307ZM526.828,342.487C527.218,342.487 527.568,342.399 527.877,342.224C528.186,342.048 528.432,341.796 528.615,341.467C528.798,341.138 528.89,340.754 528.89,340.315C528.89,339.868 528.798,339.481 528.615,339.156C528.432,338.831 528.186,338.581 527.877,338.405C527.568,338.23 527.218,338.142 526.828,338.142C526.437,338.142 526.088,338.23 525.779,338.405C525.469,338.581 525.223,338.831 525.04,339.156C524.857,339.481 524.765,339.868 524.765,340.315C524.765,340.754 524.857,341.138 525.04,341.467C525.223,341.796 525.469,342.048 525.779,342.224C526.088,342.399 526.437,342.487 526.828,342.487Z" style="fill:url(#_Linear4);fill-rule:nonzero;"/>
                <path d="M532.735,338.312C532.544,338.312 532.384,338.247 532.254,338.117C532.124,337.987 532.059,337.827 532.059,337.636C532.059,337.419 532.132,337.242 532.28,337.103C532.427,336.964 532.596,336.895 532.787,336.895C532.977,336.895 533.135,336.958 533.261,337.084C533.387,337.209 533.45,337.372 533.45,337.571C533.45,337.718 533.417,337.846 533.352,337.955C533.287,338.063 533.198,338.15 533.086,338.215C532.973,338.28 532.856,338.312 532.735,338.312ZM531.63,343.85C531.439,343.85 531.279,343.785 531.149,343.655C531.019,343.525 530.954,343.365 530.954,343.174C530.954,342.957 531.027,342.78 531.175,342.641C531.322,342.502 531.491,342.433 531.682,342.433C531.872,342.433 532.03,342.496 532.156,342.622C532.282,342.747 532.345,342.91 532.345,343.109C532.345,343.256 532.312,343.384 532.247,343.493C532.182,343.601 532.093,343.688 531.981,343.753C531.868,343.818 531.751,343.85 531.63,343.85Z" style="fill:url(#_Linear5);fill-rule:nonzero;"/>
                <path d="M532.425,345.085L539.126,332.839L540.023,332.839L533.323,345.085L532.425,345.085Z" style="fill:url(#_Linear6);fill-rule:nonzero;"/>
                <path d="M535.545,345.085L542.246,332.839L543.143,332.839L536.443,345.085L535.545,345.085Z" style="fill:url(#_Linear7);fill-rule:nonzero;"/>
                <path d="M551.804,336.759C552.364,336.759 552.858,336.868 553.287,337.085C553.716,337.302 554.053,337.635 554.296,338.085C554.539,338.534 554.661,339.108 554.661,339.808L554.661,343.785L553.036,343.785L553.036,340.021C553.036,339.406 552.9,338.946 552.628,338.643C552.356,338.339 551.971,338.188 551.473,338.188C551.119,338.188 550.804,338.265 550.53,338.42C550.255,338.574 550.043,338.803 549.892,339.107C549.742,339.41 549.667,339.793 549.667,340.257L549.667,343.785L548.042,343.785L548.042,340.021C548.042,339.406 547.907,338.946 547.636,338.643C547.365,338.339 546.98,338.188 546.479,338.188C546.125,338.188 545.81,338.265 545.536,338.42C545.261,338.574 545.049,338.803 544.899,339.107C544.749,339.41 544.673,339.793 544.673,340.257L544.673,343.785L543.048,343.785L543.048,336.844L544.598,336.844L544.598,338.693L544.321,338.143C544.552,337.696 544.89,337.354 545.337,337.116C545.784,336.878 546.296,336.759 546.874,336.759C547.52,336.759 548.084,336.92 548.565,337.241C549.046,337.562 549.365,338.051 549.522,338.708L548.886,338.486C549.108,337.964 549.48,337.546 550.001,337.231C550.522,336.917 551.123,336.759 551.804,336.759Z" style="fill:url(#_Linear8);fill-rule:nonzero;"/>
                <path d="M559.406,343.87C558.693,343.87 558.059,343.717 557.502,343.412C556.944,343.107 556.505,342.686 556.184,342.149C555.862,341.612 555.702,340.999 555.702,340.312C555.702,339.616 555.863,339.002 556.186,338.47C556.509,337.938 556.947,337.519 557.501,337.215C558.055,336.911 558.69,336.759 559.406,336.759C560.121,336.759 560.758,336.911 561.317,337.215C561.876,337.518 562.314,337.936 562.632,338.467C562.951,338.999 563.11,339.614 563.11,340.312C563.11,341.002 562.951,341.615 562.634,342.151C562.317,342.687 561.877,343.107 561.316,343.412C560.754,343.717 560.117,343.87 559.406,343.87ZM559.406,342.487C559.803,342.487 560.157,342.399 560.466,342.224C560.775,342.048 561.02,341.796 561.199,341.466C561.378,341.137 561.468,340.752 561.468,340.312C561.468,339.865 561.378,339.48 561.199,339.155C561.02,338.831 560.775,338.581 560.466,338.405C560.157,338.23 559.805,338.142 559.411,338.142C559.017,338.142 558.666,338.23 558.357,338.405C558.047,338.581 557.801,338.831 557.618,339.155C557.435,339.48 557.343,339.865 557.343,340.312C557.343,340.752 557.435,341.137 557.618,341.466C557.801,341.796 558.047,342.048 558.356,342.224C558.664,342.399 559.014,342.487 559.406,342.487Z" style="fill:url(#_Linear9);fill-rule:nonzero;"/>
                <path d="M567.714,343.87C566.99,343.87 566.344,343.718 565.775,343.413C565.207,343.109 564.762,342.688 564.44,342.152C564.118,341.616 563.957,341.003 563.957,340.314C563.957,339.617 564.118,339.003 564.44,338.471C564.762,337.938 565.207,337.52 565.775,337.216C566.344,336.911 566.99,336.759 567.714,336.759C568.392,336.759 568.99,336.896 569.507,337.171C570.024,337.446 570.415,337.848 570.679,338.379L569.434,339.112C569.227,338.782 568.973,338.538 568.674,338.38C568.375,338.221 568.051,338.142 567.701,338.142C567.304,338.142 566.945,338.23 566.627,338.405C566.309,338.581 566.058,338.831 565.874,339.155C565.69,339.48 565.598,339.866 565.598,340.314C565.598,340.762 565.69,341.148 565.874,341.473C566.058,341.798 566.309,342.048 566.627,342.224C566.945,342.399 567.304,342.487 567.701,342.487C568.051,342.487 568.375,342.41 568.674,342.255C568.973,342.1 569.227,341.854 569.434,341.517L570.679,342.25C570.415,342.773 570.024,343.174 569.507,343.452C568.99,343.731 568.392,343.87 567.714,343.87Z" style="fill:url(#_Linear10);fill-rule:nonzero;"/>
                <path d="M573.077,342.242L573.12,340.199L576.743,336.844L578.697,336.844L575.606,339.933L574.748,340.652L573.077,342.242ZM571.752,343.785L571.752,334.139L573.377,334.139L573.377,343.785L571.752,343.785ZM576.989,343.785L574.451,340.647L575.477,339.353L578.965,343.785L576.989,343.785Z" style="fill:url(#_Linear11);fill-rule:nonzero;"/>
            </g>
            <g transform="matrix(6.03325,0,0,0.805437,-1725.91,-279.5)">
                <rect x="374.8" y="543.042" width="12.967" height="20.168" style="fill-opacity:0;"/>
                <path d="M387.768,543.042L374.8,543.042L374.8,563.21L387.768,563.21L387.768,543.042ZM387.619,544.16L387.619,562.093C387.619,562.093 374.949,562.093 374.949,562.093C374.949,562.093 374.949,544.16 374.949,544.16L387.619,544.16Z" style="fill:rgb(34,34,34);fill-opacity:0;"/>
            </g>
        </g>
    </g>
    <defs>
        <linearGradient id="_Linear1" x1="0" y1="0" x2="1" y2="0" gradientUnits="userSpaceOnUse" gradientTransform="matrix(38.456,0,0,15.847,503.524,339.125)"><stop offset="0" style="stop-color:rgb(212,164,255);stop-opacity:1"/><stop offset="1" style="stop-color:rgb(255,155,230);stop-opacity:1"/></linearGradient>
        <linearGradient id="_Linear2" x1="0" y1="0" x2="1" y2="0" gradientUnits="userSpaceOnUse" gradientTransform="matrix(38.456,0,0,15.847,503.524,339.125)"><stop offset="0" style="stop-color:rgb(212,164,255);stop-opacity:1"/><stop offset="1" style="stop-color:rgb(255,155,230);stop-opacity:1"/></linearGradient>
        <linearGradient id="_Linear3" x1="0" y1="0" x2="1" y2="0" gradientUnits="userSpaceOnUse" gradientTransform="matrix(38.456,0,0,15.847,503.524,339.125)"><stop offset="0" style="stop-color:rgb(212,164,255);stop-opacity:1"/><stop offset="1" style="stop-color:rgb(255,155,230);stop-opacity:1"/></linearGradient>
        <linearGradient id="_Linear4" x1="0" y1="0" x2="1" y2="0" gradientUnits="userSpaceOnUse" gradientTransform="matrix(38.456,0,0,15.847,503.524,339.125)"><stop offset="0" style="stop-color:rgb(212,164,255);stop-opacity:1"/><stop offset="1" style="stop-color:rgb(255,155,230);stop-opacity:1"/></linearGradient>
        <linearGradient id="_Linear5" x1="0" y1="0" x2="1" y2="0" gradientUnits="userSpaceOnUse" gradientTransform="matrix(38.456,0,0,15.847,503.524,339.125)"><stop offset="0" style="stop-color:rgb(212,164,255);stop-opacity:1"/><stop offset="1" style="stop-color:rgb(255,155,230);stop-opacity:1"/></linearGradient>
        <linearGradient id="_Linear6" x1="0" y1="0" x2="1" y2="0" gradientUnits="userSpaceOnUse" gradientTransform="matrix(38.456,0,0,15.847,503.524,339.125)"><stop offset="0" style="stop-color:rgb(212,164,255);stop-opacity:1"/><stop offset="1" style="stop-color:rgb(255,155,230);stop-opacity:1"/></linearGradient>
        <linearGradient id="_Linear7" x1="0" y1="0" x2="1" y2="0" gradientUnits="userSpaceOnUse" gradientTransform="matrix(38.456,0,0,15.847,503.524,339.125)"><stop offset="0" style="stop-color:rgb(212,164,255);stop-opacity:1"/><stop offset="1" style="stop-color:rgb(255,155,230);stop-opacity:1"/></linearGradient>
        <linearGradient id="_Linear8" x1="0" y1="0" x2="1" y2="0" gradientUnits="userSpaceOnUse" gradientTransform="matrix(36.179,0,0,15.847,530.824,339.125)"><stop offset="0" style="stop-color:rgb(255,215,0);stop-opacity:1"/><stop offset="1" style="stop-color:rgb(255,168,0);stop-opacity:1"/></linearGradient>
        <linearGradient id="_Linear9" x1="0" y1="0" x2="1" y2="0" gradientUnits="userSpaceOnUse" gradientTransform="matrix(36.179,0,0,15.847,530.824,339.125)"><stop offset="0" style="stop-color:rgb(255,215,0);stop-opacity:1"/><stop offset="1" style="stop-color:rgb(255,168,0);stop-opacity:1"/></linearGradient>
        <linearGradient id="_Linear10" x1="0" y1="0" x2="1" y2="0" gradientUnits="userSpaceOnUse" gradientTransform="matrix(36.179,0,0,15.847,530.824,339.125)"><stop offset="0" style="stop-color:rgb(255,215,0);stop-opacity:1"/><stop offset="1" style="stop-color:rgb(255,168,0);stop-opacity:1"/></linearGradient>
        <linearGradient id="_Linear11" x1="0" y1="0" x2="1" y2="0" gradientUnits="userSpaceOnUse" gradientTransform="matrix(36.179,0,0,15.847,530.824,339.125)"><stop offset="0" style="stop-color:rgb(255,215,0);stop-opacity:1"/><stop offset="1" style="stop-color:rgb(255,168,0);stop-opacity:1"/></linearGradient>
    </defs>
</svg>
