<?xml version="1.0" encoding="UTF-8" standalone="no"?>
<!DOCTYPE svg PUBLIC "-//W3C//DTD SVG 1.1//EN" "http://www.w3.org/Graphics/SVG/1.1/DTD/svg11.dtd">
<svg width="100%" height="100%" viewBox="0 0 75 19" version="1.1" xmlns="http://www.w3.org/2000/svg" xmlns:xlink="http://www.w3.org/1999/xlink" xml:space="preserve" xmlns:serif="http://www.serif.com/" style="fill-rule:evenodd;clip-rule:evenodd;stroke-linejoin:round;stroke-miterlimit:2;">
    <g transform="matrix(1,0,0,1,-345.708,-491.489)">
        <g id="Dark" transform="matrix(1,0,0,1,-191.959,334.872)">
            <g transform="matrix(1,0,0,1,33.0744,-173.673)">
                <g transform="matrix(13,0,0,13,503.524,343.785)">
                    <path d="M0.385,-0.54C0.428,-0.54 0.466,-0.532 0.5,-0.515C0.533,-0.499 0.559,-0.473 0.579,-0.439C0.598,-0.404 0.608,-0.36 0.608,-0.306L0.608,-0L0.483,-0L0.483,-0.29C0.483,-0.337 0.472,-0.372 0.45,-0.396C0.427,-0.419 0.396,-0.431 0.356,-0.431C0.327,-0.431 0.301,-0.425 0.278,-0.413C0.255,-0.401 0.238,-0.383 0.226,-0.359C0.213,-0.336 0.207,-0.306 0.207,-0.27L0.207,-0L0.082,-0L0.082,-0.742L0.207,-0.742L0.207,-0.39L0.18,-0.434C0.199,-0.468 0.226,-0.495 0.261,-0.513C0.297,-0.531 0.338,-0.54 0.385,-0.54Z" style="fill:white;fill-rule:nonzero;"/>
                </g>
                <g transform="matrix(13,0,0,13,512.208,343.785)">
                    <path d="M0.283,0.007C0.224,0.007 0.179,-0.009 0.147,-0.039C0.115,-0.069 0.099,-0.114 0.099,-0.173L0.099,-0.652L0.224,-0.652L0.224,-0.176C0.224,-0.15 0.23,-0.131 0.243,-0.117C0.256,-0.103 0.275,-0.096 0.298,-0.096C0.326,-0.096 0.349,-0.103 0.368,-0.118L0.403,-0.029C0.388,-0.017 0.37,-0.008 0.349,-0.002C0.327,0.004 0.305,0.007 0.283,0.007ZM0.011,-0.43L0.011,-0.53L0.367,-0.53L0.367,-0.43L0.011,-0.43Z" style="fill:white;fill-rule:nonzero;"/>
                </g>
                <g transform="matrix(13,0,0,13,517.057,343.785)">
                    <path d="M0.283,0.007C0.224,0.007 0.179,-0.009 0.147,-0.039C0.115,-0.069 0.099,-0.114 0.099,-0.173L0.099,-0.652L0.224,-0.652L0.224,-0.176C0.224,-0.15 0.23,-0.131 0.243,-0.117C0.256,-0.103 0.275,-0.096 0.298,-0.096C0.326,-0.096 0.349,-0.103 0.368,-0.118L0.403,-0.029C0.388,-0.017 0.37,-0.008 0.349,-0.002C0.327,0.004 0.305,0.007 0.283,0.007ZM0.011,-0.43L0.011,-0.53L0.367,-0.53L0.367,-0.43L0.011,-0.43Z" style="fill:white;fill-rule:nonzero;"/>
                </g>
                <g transform="matrix(13,0,0,13,522.101,343.785)">
                    <path d="M0.378,0.007C0.335,0.007 0.295,-0.003 0.259,-0.023C0.224,-0.043 0.195,-0.073 0.175,-0.114C0.154,-0.154 0.143,-0.205 0.143,-0.267C0.143,-0.329 0.153,-0.381 0.174,-0.421C0.194,-0.461 0.221,-0.491 0.257,-0.511C0.293,-0.531 0.333,-0.54 0.378,-0.54C0.431,-0.54 0.477,-0.529 0.517,-0.506C0.558,-0.484 0.59,-0.452 0.613,-0.411C0.637,-0.37 0.649,-0.322 0.649,-0.267C0.649,-0.212 0.637,-0.164 0.613,-0.123C0.59,-0.082 0.558,-0.05 0.517,-0.027C0.477,-0.005 0.431,0.007 0.378,0.007ZM0.082,0.194L0.082,-0.534L0.201,-0.534L0.201,-0.408L0.197,-0.266L0.207,-0.124L0.207,0.194L0.082,0.194ZM0.364,-0.1C0.394,-0.1 0.421,-0.107 0.444,-0.12C0.468,-0.134 0.487,-0.153 0.501,-0.178C0.515,-0.204 0.522,-0.233 0.522,-0.267C0.522,-0.301 0.515,-0.331 0.501,-0.356C0.487,-0.381 0.468,-0.4 0.444,-0.414C0.421,-0.427 0.394,-0.434 0.364,-0.434C0.334,-0.434 0.307,-0.427 0.283,-0.414C0.259,-0.4 0.24,-0.381 0.226,-0.356C0.212,-0.331 0.205,-0.301 0.205,-0.267C0.205,-0.233 0.212,-0.204 0.226,-0.178C0.24,-0.153 0.259,-0.134 0.283,-0.12C0.307,-0.107 0.334,-0.1 0.364,-0.1Z" style="fill:white;fill-rule:nonzero;"/>
                </g>
                <g transform="matrix(13,0,0,13,530.824,343.785)">
                    <path d="M0.147,-0.421C0.132,-0.421 0.12,-0.426 0.11,-0.436C0.1,-0.446 0.095,-0.458 0.095,-0.473C0.095,-0.49 0.101,-0.503 0.112,-0.514C0.123,-0.525 0.136,-0.53 0.151,-0.53C0.166,-0.53 0.178,-0.525 0.188,-0.516C0.197,-0.506 0.202,-0.493 0.202,-0.478C0.202,-0.467 0.2,-0.457 0.195,-0.449C0.19,-0.44 0.183,-0.434 0.174,-0.429C0.165,-0.424 0.156,-0.421 0.147,-0.421ZM0.062,0.005C0.047,0.005 0.035,0 0.025,-0.01C0.015,-0.02 0.01,-0.032 0.01,-0.047C0.01,-0.064 0.016,-0.077 0.027,-0.088C0.038,-0.099 0.051,-0.104 0.066,-0.104C0.081,-0.104 0.093,-0.099 0.103,-0.09C0.112,-0.08 0.117,-0.067 0.117,-0.052C0.117,-0.041 0.115,-0.031 0.11,-0.023C0.105,-0.014 0.098,-0.008 0.089,-0.003C0.08,0.003 0.071,0.005 0.062,0.005Z" style="fill:white;fill-rule:nonzero;"/>
                </g>
                <g transform="matrix(13,0,0,13,533.71,343.785)">
                    <path d="M-0.099,0.1L0.417,-0.842L0.486,-0.842L-0.03,0.1L-0.099,0.1Z" style="fill:white;fill-rule:nonzero;"/>
                </g>
                <g transform="matrix(13,0,0,13,536.83,343.785)">
                    <path d="M-0.099,0.1L0.417,-0.842L0.486,-0.842L-0.03,0.1L-0.099,0.1Z" style="fill:white;fill-rule:nonzero;"/>
                </g>
                <path d="M551.804,336.759C552.364,336.759 552.858,336.868 553.287,337.085C553.716,337.302 554.053,337.635 554.296,338.085C554.539,338.534 554.661,339.108 554.661,339.808L554.661,343.785L553.036,343.785L553.036,340.021C553.036,339.406 552.9,338.946 552.628,338.643C552.356,338.339 551.971,338.188 551.473,338.188C551.119,338.188 550.804,338.265 550.53,338.42C550.255,338.574 550.043,338.803 549.892,339.107C549.742,339.41 549.667,339.793 549.667,340.257L549.667,343.785L548.042,343.785L548.042,340.021C548.042,339.406 547.907,338.946 547.636,338.643C547.365,338.339 546.98,338.188 546.479,338.188C546.125,338.188 545.81,338.265 545.536,338.42C545.261,338.574 545.049,338.803 544.899,339.107C544.749,339.41 544.673,339.793 544.673,340.257L544.673,343.785L543.048,343.785L543.048,336.844L544.598,336.844L544.598,338.693L544.321,338.143C544.552,337.696 544.89,337.354 545.337,337.116C545.784,336.878 546.296,336.759 546.874,336.759C547.52,336.759 548.084,336.92 548.565,337.241C549.046,337.562 549.365,338.051 549.522,338.708L548.886,338.486C549.108,337.964 549.48,337.546 550.001,337.231C550.522,336.917 551.123,336.759 551.804,336.759Z" style="fill:url(#_Linear1);fill-rule:nonzero;"/>
                <path d="M559.406,343.87C558.693,343.87 558.059,343.717 557.502,343.412C556.944,343.107 556.505,342.686 556.184,342.149C555.862,341.612 555.702,340.999 555.702,340.312C555.702,339.616 555.863,339.002 556.186,338.47C556.509,337.938 556.947,337.519 557.501,337.215C558.055,336.911 558.69,336.759 559.406,336.759C560.121,336.759 560.758,336.911 561.317,337.215C561.876,337.518 562.314,337.936 562.632,338.467C562.951,338.999 563.11,339.614 563.11,340.312C563.11,341.002 562.951,341.615 562.634,342.151C562.317,342.687 561.877,343.107 561.316,343.412C560.754,343.717 560.117,343.87 559.406,343.87ZM559.406,342.487C559.803,342.487 560.157,342.399 560.466,342.224C560.775,342.048 561.02,341.796 561.199,341.466C561.378,341.137 561.468,340.752 561.468,340.312C561.468,339.865 561.378,339.48 561.199,339.155C561.02,338.831 560.775,338.581 560.466,338.405C560.157,338.23 559.805,338.142 559.411,338.142C559.017,338.142 558.666,338.23 558.357,338.405C558.047,338.581 557.801,338.831 557.618,339.155C557.435,339.48 557.343,339.865 557.343,340.312C557.343,340.752 557.435,341.137 557.618,341.466C557.801,341.796 558.047,342.048 558.356,342.224C558.664,342.399 559.014,342.487 559.406,342.487Z" style="fill:url(#_Linear2);fill-rule:nonzero;"/>
                <path d="M567.714,343.87C566.99,343.87 566.344,343.718 565.775,343.413C565.207,343.109 564.762,342.688 564.44,342.152C564.118,341.616 563.957,341.003 563.957,340.314C563.957,339.617 564.118,339.003 564.44,338.471C564.762,337.938 565.207,337.52 565.775,337.216C566.344,336.911 566.99,336.759 567.714,336.759C568.392,336.759 568.99,336.896 569.507,337.171C570.024,337.446 570.415,337.848 570.679,338.379L569.434,339.112C569.227,338.782 568.973,338.538 568.674,338.38C568.375,338.221 568.051,338.142 567.701,338.142C567.304,338.142 566.945,338.23 566.627,338.405C566.309,338.581 566.058,338.831 565.874,339.155C565.69,339.48 565.598,339.866 565.598,340.314C565.598,340.762 565.69,341.148 565.874,341.473C566.058,341.798 566.309,342.048 566.627,342.224C566.945,342.399 567.304,342.487 567.701,342.487C568.051,342.487 568.375,342.41 568.674,342.255C568.973,342.1 569.227,341.854 569.434,341.517L570.679,342.25C570.415,342.773 570.024,343.174 569.507,343.452C568.99,343.731 568.392,343.87 567.714,343.87Z" style="fill:url(#_Linear3);fill-rule:nonzero;"/>
                <path d="M573.077,342.242L573.12,340.199L576.743,336.844L578.697,336.844L575.606,339.933L574.748,340.652L573.077,342.242ZM571.752,343.785L571.752,334.139L573.377,334.139L573.377,343.785L571.752,343.785ZM576.989,343.785L574.451,340.647L575.477,339.353L578.965,343.785L576.989,343.785Z" style="fill:url(#_Linear4);fill-rule:nonzero;"/>
            </g>
            <g transform="matrix(1,0,0,0.908027,181.635,-336.481)">
                <rect x="374.8" y="543.042" width="12.967" height="20.168" style="fill-opacity:0;"/>
                <path d="M387.768,543.042L374.8,543.042L374.8,563.21L387.768,563.21L387.768,543.042ZM386.868,544.033L386.868,562.219C386.868,562.219 375.7,562.219 375.7,562.219C375.7,562.219 375.7,544.033 375.7,544.033L386.868,544.033Z" style="fill:rgb(34,34,34);fill-opacity:0;"/>
            </g>
        </g>
    </g>
    <defs>
        <linearGradient id="_Linear1" x1="0" y1="0" x2="1" y2="0" gradientUnits="userSpaceOnUse" gradientTransform="matrix(36.179,0,0,15.847,530.824,339.125)"><stop offset="0" style="stop-color:rgb(255,215,0);stop-opacity:1"/><stop offset="1" style="stop-color:rgb(255,168,0);stop-opacity:1"/></linearGradient>
        <linearGradient id="_Linear2" x1="0" y1="0" x2="1" y2="0" gradientUnits="userSpaceOnUse" gradientTransform="matrix(36.179,0,0,15.847,530.824,339.125)"><stop offset="0" style="stop-color:rgb(255,215,0);stop-opacity:1"/><stop offset="1" style="stop-color:rgb(255,168,0);stop-opacity:1"/></linearGradient>
        <linearGradient id="_Linear3" x1="0" y1="0" x2="1" y2="0" gradientUnits="userSpaceOnUse" gradientTransform="matrix(36.179,0,0,15.847,530.824,339.125)"><stop offset="0" style="stop-color:rgb(255,215,0);stop-opacity:1"/><stop offset="1" style="stop-color:rgb(255,168,0);stop-opacity:1"/></linearGradient>
        <linearGradient id="_Linear4" x1="0" y1="0" x2="1" y2="0" gradientUnits="userSpaceOnUse" gradientTransform="matrix(36.179,0,0,15.847,530.824,339.125)"><stop offset="0" style="stop-color:rgb(255,215,0);stop-opacity:1"/><stop offset="1" style="stop-color:rgb(255,168,0);stop-opacity:1"/></linearGradient>
    </defs>
</svg>
